<svg xmlns="http://www.w3.org/2000/svg" width="143" height="35" viewBox="0 0 143 35"><rect class="svg__rect" x="0" y="0" width="68.87" height="35" fill="#31C4F3"/><rect class="svg__rect" x="66.87" y="0" width="76.13" height="35" fill="#389AD5"/><path class="svg__text" d="M15.69 22L14.22 22L14.22 13.47L16.14 13.47L18.60 20.01L21.06 13.47L22.97 13.47L22.97 22L21.49 22L21.49 19.19L21.64 15.43L19.12 22L18.06 22L15.55 15.43L15.69 19.19L15.69 22ZM28.49 22L26.95 22L30.17 13.47L31.50 13.47L34.73 22L33.18 22L32.49 20.01L29.18 20.01L28.49 22ZM30.83 15.28L29.60 18.82L32.07 18.82L30.83 15.28ZM41.14 22L38.69 22L38.69 13.47L41.21 13.47Q42.34 13.47 43.21 13.97Q44.09 14.48 44.57 15.40Q45.05 16.33 45.05 17.52L45.05 17.52L45.05 17.95Q45.05 19.16 44.57 20.08Q44.08 21.00 43.19 21.50Q42.30 22 41.14 22L41.14 22ZM40.17 14.66L40.17 20.82L41.14 20.82Q42.30 20.82 42.93 20.09Q43.55 19.36 43.56 17.99L43.56 17.99L43.56 17.52Q43.56 16.13 42.96 15.40Q42.35 14.66 41.21 14.66L41.21 14.66L40.17 14.66ZM55.09 22L49.51 22L49.51 13.47L55.05 13.47L55.05 14.66L51.00 14.66L51.00 17.02L54.50 17.02L54.50 18.19L51.00 18.19L51.00 20.82L55.09 20.82L55.09 22Z" fill="#FFFFFF"/><path class="svg__text" d="M80.63 17.80L80.63 17.80Q80.63 16.54 81.23 15.54Q81.83 14.55 82.88 13.99Q83.93 13.43 85.25 13.43L85.25 13.43Q86.40 13.43 87.32 13.84Q88.25 14.25 88.86 15.02L88.86 15.02L87.35 16.39Q86.54 15.40 85.37 15.40L85.37 15.40Q84.68 15.40 84.15 15.70Q83.62 16 83.32 16.54Q83.03 17.09 83.03 17.80L83.03 17.80Q83.03 18.51 83.32 19.05Q83.62 19.60 84.15 19.90Q84.68 20.20 85.37 20.20L85.37 20.20Q86.54 20.20 87.35 19.22L87.35 19.22L88.86 20.58Q88.25 21.35 87.33 21.76Q86.40 22.17 85.25 22.17L85.25 22.17Q83.93 22.17 82.88 21.61Q81.83 21.05 81.23 20.05Q80.63 19.06 80.63 17.80ZM94.14 23.20L92.11 23.20L96.08 11.90L98.10 11.90L94.14 23.20ZM101.43 17.80L101.43 17.80Q101.43 16.54 102.03 15.54Q102.63 14.55 103.68 13.99Q104.73 13.43 106.05 13.43L106.05 13.43Q107.20 13.43 108.13 13.84Q109.05 14.25 109.66 15.02L109.66 15.02L108.15 16.39Q107.34 15.40 106.17 15.40L106.17 15.40Q105.49 15.40 104.95 15.70Q104.42 16 104.12 16.54Q103.83 17.09 103.83 17.80L103.83 17.80Q103.83 18.51 104.12 19.05Q104.42 19.60 104.95 19.90Q105.49 20.20 106.17 20.20L106.17 20.20Q107.34 20.20 108.15 19.22L108.15 19.22L109.66 20.58Q109.05 21.35 108.13 21.76Q107.20 22.17 106.05 22.17L106.05 22.17Q104.73 22.17 103.68 21.61Q102.63 21.05 102.03 20.05Q101.43 19.06 101.43 17.80ZM116.10 18.68L114.06 18.68L114.06 16.93L116.10 16.93L116.10 14.95L117.94 14.95L117.94 16.93L119.97 16.93L119.97 18.68L117.94 18.68L117.94 20.66L116.10 20.66L116.10 18.68ZM126.89 18.68L124.85 18.68L124.85 16.93L126.89 16.93L126.89 14.95L128.74 14.95L128.74 16.93L130.76 16.93L130.76 18.68L128.74 18.68L128.74 20.66L126.89 20.66L126.89 18.68Z" fill="#FFFFFF" x="79.87"/></svg>