<svg xmlns="http://www.w3.org/2000/svg" width="199.61" height="35" viewBox="0 0 199.61 35"><rect class="svg__rect" x="0" y="0" width="104.95" height="35" fill="#31C4F3"/><rect class="svg__rect" x="102.95" y="0" width="96.66000000000001" height="35" fill="#389AD5"/><path class="svg__text" d="M13.78 19.42L13.78 19.42L15.27 19.42Q15.27 20.15 15.75 20.55Q16.23 20.95 17.12 20.95L17.12 20.95Q17.90 20.95 18.29 20.63Q18.68 20.32 18.68 19.80L18.68 19.80Q18.68 19.24 18.28 18.94Q17.89 18.63 16.85 18.32Q15.82 18.01 15.21 17.63L15.21 17.63Q14.05 16.90 14.05 15.72L14.05 15.72Q14.05 14.69 14.89 14.02Q15.73 13.35 17.07 13.35L17.07 13.35Q17.96 13.35 18.66 13.68Q19.36 14.01 19.75 14.61Q20.15 15.22 20.15 15.96L20.15 15.96L18.68 15.96Q18.68 15.29 18.26 14.91Q17.84 14.54 17.06 14.54L17.06 14.54Q16.33 14.54 15.93 14.85Q15.53 15.16 15.53 15.71L15.53 15.71Q15.53 16.18 15.96 16.50Q16.40 16.81 17.39 17.10Q18.39 17.40 18.99 17.78Q19.60 18.16 19.88 18.65Q20.16 19.13 20.16 19.79L20.16 19.79Q20.16 20.86 19.34 21.49Q18.52 22.12 17.12 22.12L17.12 22.12Q16.20 22.12 15.42 21.77Q14.64 21.43 14.21 20.83Q13.78 20.22 13.78 19.42ZM26.01 22L24.54 22L24.54 13.47L26.01 13.47L26.01 22ZM32.30 22L30.82 22L30.82 13.47L32.74 13.47L35.21 20.01L37.66 13.47L39.58 13.47L39.58 22L38.10 22L38.10 19.19L38.25 15.43L35.73 22L34.67 22L32.15 15.43L32.30 19.19L32.30 22ZM44.18 19.16L44.18 19.16L44.18 13.47L45.66 13.47L45.66 19.18Q45.66 20.03 46.09 20.48Q46.53 20.93 47.37 20.93L47.37 20.93Q49.08 20.93 49.08 19.13L49.08 19.13L49.08 13.47L50.56 13.47L50.56 19.17Q50.56 20.53 49.69 21.32Q48.82 22.12 47.37 22.12L47.37 22.12Q45.90 22.12 45.04 21.33Q44.18 20.55 44.18 19.16ZM60.48 22L55.13 22L55.13 13.47L56.61 13.47L56.61 20.82L60.48 20.82L60.48 22ZM65.39 22L63.85 22L67.07 13.47L68.40 13.47L71.63 22L70.08 22L69.38 20.01L66.08 20.01L65.39 22ZM67.73 15.28L66.49 18.82L68.97 18.82L67.73 15.28ZM77.26 14.66L74.63 14.66L74.63 13.47L81.39 13.47L81.39 14.66L78.73 14.66L78.73 22L77.26 22L77.26 14.66ZM90.73 22L85.15 22L85.15 13.47L90.69 13.47L90.69 14.66L86.63 14.66L86.63 17.02L90.14 17.02L90.14 18.19L86.63 18.19L86.63 20.82L90.73 20.82L90.73 22Z" fill="#FFFFFF"/><path class="svg__text" d="M119.34 22L117.14 22L117.14 13.60L119.09 13.60L122.05 18.45L124.93 13.60L126.88 13.60L126.91 22L124.73 22L124.70 17.55L122.54 21.17L121.49 21.17L119.34 17.67L119.34 22ZM133.49 22L131.06 22L134.77 13.60L137.11 13.60L140.83 22L138.36 22L137.70 20.37L134.15 20.37L133.49 22ZM135.92 15.93L134.84 18.61L137.00 18.61L135.92 15.93ZM146.77 15.48L144.19 15.48L144.19 13.60L151.71 13.60L151.71 15.48L149.15 15.48L149.15 22L146.77 22L146.77 15.48ZM162.47 22L156.09 22L156.09 13.60L158.46 13.60L158.46 20.11L162.47 20.11L162.47 22ZM168.31 22L165.88 22L169.59 13.60L171.93 13.60L175.65 22L173.18 22L172.52 20.37L168.97 20.37L168.31 22ZM170.75 15.93L169.66 18.61L171.82 18.61L170.75 15.93ZM184.34 22L179.80 22L179.80 13.60L184.10 13.60Q185.71 13.60 186.55 14.19Q187.39 14.79 187.39 15.79L187.39 15.79Q187.39 16.39 187.10 16.87Q186.80 17.34 186.26 17.62L186.26 17.62Q186.98 17.87 187.39 18.41Q187.80 18.94 187.80 19.70L187.80 19.70Q187.80 20.80 186.91 21.40Q186.02 22 184.34 22L184.34 22ZM182.16 18.58L182.16 20.28L184.15 20.28Q185.40 20.28 185.40 19.43L185.40 19.43Q185.40 18.58 184.15 18.58L184.15 18.58L182.16 18.58ZM182.16 15.31L182.16 16.94L183.79 16.94Q184.99 16.94 184.99 16.12L184.99 16.12Q184.99 15.31 183.79 15.31L183.79 15.31L182.16 15.31Z" fill="#FFFFFF" x="115.95"/></svg>